<?xml version="1.0" encoding="UTF-8"?>
<svg id="Layer_1" data-name="Layer 1" xmlns="http://www.w3.org/2000/svg" viewBox="0 0 2429.385 797.8">
  <defs>
    <style>
      .cls-1 {
        letter-spacing: -.039em;
      }

      .cls-2 {
        letter-spacing: -.026em;
      }

      .cls-3 {
        letter-spacing: -.057em;
      }

      .cls-4 {
        font-family: Montserrat-Medium, Montserrat;
        font-size: 154px;
        font-variation-settings: 'wght' 500;
        font-weight: 500;
      }

      .cls-5 {
        letter-spacing: -.026em;
      }

      .cls-6 {
        letter-spacing: -.039em;
      }

      .cls-7 {
        letter-spacing: -.046em;
      }

      .cls-8 {
        font-family: Montserrat-Bold, Montserrat;
        font-size: 338px;
        font-variation-settings: 'wght' 700;
        font-weight: 700;
      }

      .cls-9 {
        letter-spacing: -.037em;
      }
    </style>
  </defs>
  <g>
    <rect x="0" y=".821" width="239.425" height="378.481"/>
    <rect x="279.608" y=".821" width="239.425" height="378.481"/>
    <rect x="559.216" y=".821" width="239.425" height="169.233"/>
    <rect x="559.216" y="210.07" width="239.425" height="169.233"/>
    <rect y="419.319" width="239.425" height="169.233"/>
    <rect x="0" y="628.567" width="239.425" height="169.233"/>
    <polygon points="318.954 419.336 519.032 419.336 519.032 755.283 318.954 419.336"/>
    <polygon points="279.608 460.168 279.608 797.8 478.849 797.8 279.608 460.168"/>
    <polygon points="599.399 419.319 758.457 419.319 678.928 537.698 599.399 419.319"/>
    <polygon points="559.216 460.168 559.216 797.8 658.836 797.8 658.836 606.419 559.216 460.168"/>
    <polygon points="798.642 460.168 798.642 797.8 699.022 797.8 699.022 606.419 798.642 460.168"/>
  </g>
  <text class="cls-8" transform="translate(798.64 315.458)"><tspan class="cls-2" x="0" y="0">DCEE</tspan><tspan class="cls-9" x="942.334" y="0">N</tspan><tspan class="cls-5" x="1202.937" y="0">Y</tspan></text>
  <text class="cls-4" transform="translate(827.908 664.805)"><tspan class="cls-1" x="0" y="0">In</tspan><tspan class="cls-3" x="140.602" y="0">t</tspan><tspan class="cls-6" x="195.58" y="0">e</tspan><tspan class="cls-7" x="283.821" y="0">r</tspan><tspan class="cls-1" x="339.877" y="0">ior Design Studio</tspan></text>
</svg>